G04 #@! TF.GenerationSoftware,KiCad,Pcbnew,(5.1.5-0-10_14)*
G04 #@! TF.CreationDate,2020-08-02T15:46:47+01:00*
G04 #@! TF.ProjectId,or2_reader,6f72325f-7265-4616-9465-722e6b696361,rev?*
G04 #@! TF.SameCoordinates,Original*
G04 #@! TF.FileFunction,Paste,Top*
G04 #@! TF.FilePolarity,Positive*
%FSLAX46Y46*%
G04 Gerber Fmt 4.6, Leading zero omitted, Abs format (unit mm)*
G04 Created by KiCad (PCBNEW (5.1.5-0-10_14)) date 2020-08-02 15:46:47*
%MOMM*%
%LPD*%
G04 APERTURE LIST*
%ADD10R,1.500000X2.600000*%
%ADD11C,0.100000*%
%ADD12R,1.300000X3.400000*%
G04 APERTURE END LIST*
D10*
X148308400Y-81213200D03*
X145308400Y-81213200D03*
D11*
G36*
X156106691Y-86622053D02*
G01*
X156127926Y-86625203D01*
X156148750Y-86630419D01*
X156168962Y-86637651D01*
X156188368Y-86646830D01*
X156206781Y-86657866D01*
X156224024Y-86670654D01*
X156239930Y-86685070D01*
X156254346Y-86700976D01*
X156267134Y-86718219D01*
X156278170Y-86736632D01*
X156287349Y-86756038D01*
X156294581Y-86776250D01*
X156299797Y-86797074D01*
X156302947Y-86818309D01*
X156304000Y-86839750D01*
X156304000Y-87277250D01*
X156302947Y-87298691D01*
X156299797Y-87319926D01*
X156294581Y-87340750D01*
X156287349Y-87360962D01*
X156278170Y-87380368D01*
X156267134Y-87398781D01*
X156254346Y-87416024D01*
X156239930Y-87431930D01*
X156224024Y-87446346D01*
X156206781Y-87459134D01*
X156188368Y-87470170D01*
X156168962Y-87479349D01*
X156148750Y-87486581D01*
X156127926Y-87491797D01*
X156106691Y-87494947D01*
X156085250Y-87496000D01*
X155572750Y-87496000D01*
X155551309Y-87494947D01*
X155530074Y-87491797D01*
X155509250Y-87486581D01*
X155489038Y-87479349D01*
X155469632Y-87470170D01*
X155451219Y-87459134D01*
X155433976Y-87446346D01*
X155418070Y-87431930D01*
X155403654Y-87416024D01*
X155390866Y-87398781D01*
X155379830Y-87380368D01*
X155370651Y-87360962D01*
X155363419Y-87340750D01*
X155358203Y-87319926D01*
X155355053Y-87298691D01*
X155354000Y-87277250D01*
X155354000Y-86839750D01*
X155355053Y-86818309D01*
X155358203Y-86797074D01*
X155363419Y-86776250D01*
X155370651Y-86756038D01*
X155379830Y-86736632D01*
X155390866Y-86718219D01*
X155403654Y-86700976D01*
X155418070Y-86685070D01*
X155433976Y-86670654D01*
X155451219Y-86657866D01*
X155469632Y-86646830D01*
X155489038Y-86637651D01*
X155509250Y-86630419D01*
X155530074Y-86625203D01*
X155551309Y-86622053D01*
X155572750Y-86621000D01*
X156085250Y-86621000D01*
X156106691Y-86622053D01*
G37*
G36*
X156106691Y-85047053D02*
G01*
X156127926Y-85050203D01*
X156148750Y-85055419D01*
X156168962Y-85062651D01*
X156188368Y-85071830D01*
X156206781Y-85082866D01*
X156224024Y-85095654D01*
X156239930Y-85110070D01*
X156254346Y-85125976D01*
X156267134Y-85143219D01*
X156278170Y-85161632D01*
X156287349Y-85181038D01*
X156294581Y-85201250D01*
X156299797Y-85222074D01*
X156302947Y-85243309D01*
X156304000Y-85264750D01*
X156304000Y-85702250D01*
X156302947Y-85723691D01*
X156299797Y-85744926D01*
X156294581Y-85765750D01*
X156287349Y-85785962D01*
X156278170Y-85805368D01*
X156267134Y-85823781D01*
X156254346Y-85841024D01*
X156239930Y-85856930D01*
X156224024Y-85871346D01*
X156206781Y-85884134D01*
X156188368Y-85895170D01*
X156168962Y-85904349D01*
X156148750Y-85911581D01*
X156127926Y-85916797D01*
X156106691Y-85919947D01*
X156085250Y-85921000D01*
X155572750Y-85921000D01*
X155551309Y-85919947D01*
X155530074Y-85916797D01*
X155509250Y-85911581D01*
X155489038Y-85904349D01*
X155469632Y-85895170D01*
X155451219Y-85884134D01*
X155433976Y-85871346D01*
X155418070Y-85856930D01*
X155403654Y-85841024D01*
X155390866Y-85823781D01*
X155379830Y-85805368D01*
X155370651Y-85785962D01*
X155363419Y-85765750D01*
X155358203Y-85744926D01*
X155355053Y-85723691D01*
X155354000Y-85702250D01*
X155354000Y-85264750D01*
X155355053Y-85243309D01*
X155358203Y-85222074D01*
X155363419Y-85201250D01*
X155370651Y-85181038D01*
X155379830Y-85161632D01*
X155390866Y-85143219D01*
X155403654Y-85125976D01*
X155418070Y-85110070D01*
X155433976Y-85095654D01*
X155451219Y-85082866D01*
X155469632Y-85071830D01*
X155489038Y-85062651D01*
X155509250Y-85055419D01*
X155530074Y-85050203D01*
X155551309Y-85047053D01*
X155572750Y-85046000D01*
X156085250Y-85046000D01*
X156106691Y-85047053D01*
G37*
D12*
X167081700Y-82296000D03*
X158381700Y-82296000D03*
M02*
