G04 #@! TF.GenerationSoftware,KiCad,Pcbnew,(5.1.5-0-10_14)*
G04 #@! TF.CreationDate,2020-08-02T15:46:47+01:00*
G04 #@! TF.ProjectId,or2_reader,6f72325f-7265-4616-9465-722e6b696361,rev?*
G04 #@! TF.SameCoordinates,Original*
G04 #@! TF.FileFunction,Legend,Top*
G04 #@! TF.FilePolarity,Positive*
%FSLAX46Y46*%
G04 Gerber Fmt 4.6, Leading zero omitted, Abs format (unit mm)*
G04 Created by KiCad (PCBNEW (5.1.5-0-10_14)) date 2020-08-02 15:46:47*
%MOMM*%
%LPD*%
G04 APERTURE LIST*
%ADD10C,0.300000*%
%ADD11C,0.120000*%
%ADD12C,0.150000*%
G04 APERTURE END LIST*
D10*
X152672528Y-101554671D02*
X152172528Y-100840385D01*
X151815385Y-101554671D02*
X151815385Y-100054671D01*
X152386814Y-100054671D01*
X152529671Y-100126100D01*
X152601100Y-100197528D01*
X152672528Y-100340385D01*
X152672528Y-100554671D01*
X152601100Y-100697528D01*
X152529671Y-100768957D01*
X152386814Y-100840385D01*
X151815385Y-100840385D01*
X153315385Y-100768957D02*
X153815385Y-100768957D01*
X154029671Y-101554671D02*
X153315385Y-101554671D01*
X153315385Y-100054671D01*
X154029671Y-100054671D01*
X154601100Y-101483242D02*
X154815385Y-101554671D01*
X155172528Y-101554671D01*
X155315385Y-101483242D01*
X155386814Y-101411814D01*
X155458242Y-101268957D01*
X155458242Y-101126100D01*
X155386814Y-100983242D01*
X155315385Y-100911814D01*
X155172528Y-100840385D01*
X154886814Y-100768957D01*
X154743957Y-100697528D01*
X154672528Y-100626100D01*
X154601100Y-100483242D01*
X154601100Y-100340385D01*
X154672528Y-100197528D01*
X154743957Y-100126100D01*
X154886814Y-100054671D01*
X155243957Y-100054671D01*
X155458242Y-100126100D01*
X156101100Y-100768957D02*
X156601100Y-100768957D01*
X156815385Y-101554671D02*
X156101100Y-101554671D01*
X156101100Y-100054671D01*
X156815385Y-100054671D01*
X157243957Y-100054671D02*
X158101100Y-100054671D01*
X157672528Y-101554671D02*
X157672528Y-100054671D01*
X134541914Y-106052942D02*
X134756200Y-106124371D01*
X135113342Y-106124371D01*
X135256200Y-106052942D01*
X135327628Y-105981514D01*
X135399057Y-105838657D01*
X135399057Y-105695800D01*
X135327628Y-105552942D01*
X135256200Y-105481514D01*
X135113342Y-105410085D01*
X134827628Y-105338657D01*
X134684771Y-105267228D01*
X134613342Y-105195800D01*
X134541914Y-105052942D01*
X134541914Y-104910085D01*
X134613342Y-104767228D01*
X134684771Y-104695800D01*
X134827628Y-104624371D01*
X135184771Y-104624371D01*
X135399057Y-104695800D01*
X136899057Y-105981514D02*
X136827628Y-106052942D01*
X136613342Y-106124371D01*
X136470485Y-106124371D01*
X136256200Y-106052942D01*
X136113342Y-105910085D01*
X136041914Y-105767228D01*
X135970485Y-105481514D01*
X135970485Y-105267228D01*
X136041914Y-104981514D01*
X136113342Y-104838657D01*
X136256200Y-104695800D01*
X136470485Y-104624371D01*
X136613342Y-104624371D01*
X136827628Y-104695800D01*
X136899057Y-104767228D01*
X138256200Y-106124371D02*
X137541914Y-106124371D01*
X137541914Y-104624371D01*
X134541914Y-108602942D02*
X134756200Y-108674371D01*
X135113342Y-108674371D01*
X135256200Y-108602942D01*
X135327628Y-108531514D01*
X135399057Y-108388657D01*
X135399057Y-108245800D01*
X135327628Y-108102942D01*
X135256200Y-108031514D01*
X135113342Y-107960085D01*
X134827628Y-107888657D01*
X134684771Y-107817228D01*
X134613342Y-107745800D01*
X134541914Y-107602942D01*
X134541914Y-107460085D01*
X134613342Y-107317228D01*
X134684771Y-107245800D01*
X134827628Y-107174371D01*
X135184771Y-107174371D01*
X135399057Y-107245800D01*
X136041914Y-108674371D02*
X136041914Y-107174371D01*
X136399057Y-107174371D01*
X136613342Y-107245800D01*
X136756200Y-107388657D01*
X136827628Y-107531514D01*
X136899057Y-107817228D01*
X136899057Y-108031514D01*
X136827628Y-108317228D01*
X136756200Y-108460085D01*
X136613342Y-108602942D01*
X136399057Y-108674371D01*
X136041914Y-108674371D01*
X137470485Y-108245800D02*
X138184771Y-108245800D01*
X137327628Y-108674371D02*
X137827628Y-107174371D01*
X138327628Y-108674371D01*
X134399057Y-109724371D02*
X134899057Y-111224371D01*
X135399057Y-109724371D01*
X136756200Y-111081514D02*
X136684771Y-111152942D01*
X136470485Y-111224371D01*
X136327628Y-111224371D01*
X136113342Y-111152942D01*
X135970485Y-111010085D01*
X135899057Y-110867228D01*
X135827628Y-110581514D01*
X135827628Y-110367228D01*
X135899057Y-110081514D01*
X135970485Y-109938657D01*
X136113342Y-109795800D01*
X136327628Y-109724371D01*
X136470485Y-109724371D01*
X136684771Y-109795800D01*
X136756200Y-109867228D01*
X138256200Y-111081514D02*
X138184771Y-111152942D01*
X137970485Y-111224371D01*
X137827628Y-111224371D01*
X137613342Y-111152942D01*
X137470485Y-111010085D01*
X137399057Y-110867228D01*
X137327628Y-110581514D01*
X137327628Y-110367228D01*
X137399057Y-110081514D01*
X137470485Y-109938657D01*
X137613342Y-109795800D01*
X137827628Y-109724371D01*
X137970485Y-109724371D01*
X138184771Y-109795800D01*
X138256200Y-109867228D01*
X135399057Y-112345800D02*
X135256200Y-112274371D01*
X135041914Y-112274371D01*
X134827628Y-112345800D01*
X134684771Y-112488657D01*
X134613342Y-112631514D01*
X134541914Y-112917228D01*
X134541914Y-113131514D01*
X134613342Y-113417228D01*
X134684771Y-113560085D01*
X134827628Y-113702942D01*
X135041914Y-113774371D01*
X135184771Y-113774371D01*
X135399057Y-113702942D01*
X135470485Y-113631514D01*
X135470485Y-113131514D01*
X135184771Y-113131514D01*
X136113342Y-113774371D02*
X136113342Y-112274371D01*
X136970485Y-113774371D01*
X136970485Y-112274371D01*
X137684771Y-113774371D02*
X137684771Y-112274371D01*
X138041914Y-112274371D01*
X138256200Y-112345800D01*
X138399057Y-112488657D01*
X138470485Y-112631514D01*
X138541914Y-112917228D01*
X138541914Y-113131514D01*
X138470485Y-113417228D01*
X138399057Y-113560085D01*
X138256200Y-113702942D01*
X138041914Y-113774371D01*
X137684771Y-113774371D01*
D11*
X144408400Y-79613200D02*
X144408400Y-80413200D01*
X149058400Y-79613200D02*
X144408400Y-79613200D01*
X149058400Y-82813200D02*
X144408400Y-82813200D01*
X155319000Y-86108221D02*
X155319000Y-86433779D01*
X156339000Y-86108221D02*
X156339000Y-86433779D01*
X158121700Y-80336000D02*
X158121700Y-77686000D01*
X158121700Y-77686000D02*
X167341700Y-77686000D01*
X167341700Y-77686000D02*
X167341700Y-80336000D01*
X167341700Y-84256000D02*
X167341700Y-86906000D01*
X167341700Y-86906000D02*
X158121700Y-86906000D01*
X158121700Y-86906000D02*
X158121700Y-84256000D01*
X158121700Y-80336000D02*
X157791700Y-80336000D01*
X144199000Y-82614600D02*
X144199000Y-85704600D01*
X149259000Y-84159600D02*
G75*
G03X149259000Y-84159600I-2500000J0D01*
G01*
X149749000Y-84159138D02*
G75*
G02X144199000Y-85704430I-2990000J-462D01*
G01*
X149749000Y-84160062D02*
G75*
G03X144199000Y-82614770I-2990000J462D01*
G01*
D12*
X146070304Y-79165580D02*
X146070304Y-78165580D01*
X146308400Y-78165580D01*
X146451257Y-78213200D01*
X146546495Y-78308438D01*
X146594114Y-78403676D01*
X146641733Y-78594152D01*
X146641733Y-78737009D01*
X146594114Y-78927485D01*
X146546495Y-79022723D01*
X146451257Y-79117961D01*
X146308400Y-79165580D01*
X146070304Y-79165580D01*
X147022685Y-78260819D02*
X147070304Y-78213200D01*
X147165542Y-78165580D01*
X147403638Y-78165580D01*
X147498876Y-78213200D01*
X147546495Y-78260819D01*
X147594114Y-78356057D01*
X147594114Y-78451295D01*
X147546495Y-78594152D01*
X146975066Y-79165580D01*
X147594114Y-79165580D01*
X155725833Y-89098180D02*
X155392500Y-88621990D01*
X155154404Y-89098180D02*
X155154404Y-88098180D01*
X155535357Y-88098180D01*
X155630595Y-88145800D01*
X155678214Y-88193419D01*
X155725833Y-88288657D01*
X155725833Y-88431514D01*
X155678214Y-88526752D01*
X155630595Y-88574371D01*
X155535357Y-88621990D01*
X155154404Y-88621990D01*
X156678214Y-89098180D02*
X156106785Y-89098180D01*
X156392500Y-89098180D02*
X156392500Y-88098180D01*
X156297261Y-88241038D01*
X156202023Y-88336276D01*
X156106785Y-88383895D01*
X162088842Y-82735680D02*
X161612652Y-82735680D01*
X161612652Y-81735680D01*
X162374557Y-82688061D02*
X162517414Y-82735680D01*
X162755509Y-82735680D01*
X162850747Y-82688061D01*
X162898366Y-82640442D01*
X162945985Y-82545204D01*
X162945985Y-82449966D01*
X162898366Y-82354728D01*
X162850747Y-82307109D01*
X162755509Y-82259490D01*
X162565033Y-82211871D01*
X162469795Y-82164252D01*
X162422176Y-82116633D01*
X162374557Y-82021395D01*
X162374557Y-81926157D01*
X162422176Y-81830919D01*
X162469795Y-81783300D01*
X162565033Y-81735680D01*
X162803128Y-81735680D01*
X162945985Y-81783300D01*
X163326938Y-81830919D02*
X163374557Y-81783300D01*
X163469795Y-81735680D01*
X163707890Y-81735680D01*
X163803128Y-81783300D01*
X163850747Y-81830919D01*
X163898366Y-81926157D01*
X163898366Y-82021395D01*
X163850747Y-82164252D01*
X163279319Y-82735680D01*
X163898366Y-82735680D01*
X146035804Y-88730080D02*
X146035804Y-87730080D01*
X146273900Y-87730080D01*
X146416757Y-87777700D01*
X146511995Y-87872938D01*
X146559614Y-87968176D01*
X146607233Y-88158652D01*
X146607233Y-88301509D01*
X146559614Y-88491985D01*
X146511995Y-88587223D01*
X146416757Y-88682461D01*
X146273900Y-88730080D01*
X146035804Y-88730080D01*
X147559614Y-88730080D02*
X146988185Y-88730080D01*
X147273900Y-88730080D02*
X147273900Y-87730080D01*
X147178661Y-87872938D01*
X147083423Y-87968176D01*
X146988185Y-88015795D01*
M02*
